<svg width="42" height="43" viewBox="0 0 42 43" fill="none" xmlns="http://www.w3.org/2000/svg">
<g clip-path="url(#clip0_152_348)">
<path d="M21 36.8987C29.6985 36.8987 36.75 29.8472 36.75 21.1487C36.75 12.4502 29.6985 5.39868 21 5.39868C12.3015 5.39868 5.25 12.4502 5.25 21.1487C5.25 29.8472 12.3015 36.8987 21 36.8987Z" stroke="#f9b417" stroke-width="2" stroke-linecap="round" stroke-linejoin="round"/>
<path d="M21 14.2581L14.4539 19.0159L16.9476 26.7268H25.0523L27.546 19.0159L21 14.2581Z" stroke="#f9b417" stroke-width="2" stroke-linecap="round" stroke-linejoin="round"/>
<path d="M21 10.6487V14.2581" stroke="#f9b417" stroke-width="2" stroke-linecap="round" stroke-linejoin="round"/>
<path d="M26.7422 6.48151L21 10.6487L15.2578 6.48151" stroke="#f9b417" stroke-width="2" stroke-linecap="round" stroke-linejoin="round"/>
<path d="M11.0085 17.9003L14.4539 19.0159" stroke="#f9b417" stroke-width="2" stroke-linecap="round" stroke-linejoin="round"/>
<path d="M8.82651 11.1573L11.0085 17.9003L5.26636 22.0838" stroke="#f9b417" stroke-width="2" stroke-linecap="round" stroke-linejoin="round"/>
<path d="M14.8313 29.6471L16.9477 26.7268" stroke="#f9b417" stroke-width="2" stroke-linecap="round" stroke-linejoin="round"/>
<path d="M7.72729 29.6471H14.8312L17.0296 36.3901" stroke="#f9b417" stroke-width="2" stroke-linecap="round" stroke-linejoin="round"/>
<path d="M27.1691 29.6471L25.0527 26.7268" stroke="#f9b417" stroke-width="2" stroke-linecap="round" stroke-linejoin="round"/>
<path d="M24.9707 36.3901L27.1691 29.6471H34.273" stroke="#f9b417" stroke-width="2" stroke-linecap="round" stroke-linejoin="round"/>
<path d="M30.9915 17.9003L27.5461 19.0159" stroke="#f9b417" stroke-width="2" stroke-linecap="round" stroke-linejoin="round"/>
<path d="M36.7336 22.0838L30.9915 17.9003L33.1735 11.1573" stroke="#f9b417" stroke-width="2" stroke-linecap="round" stroke-linejoin="round"/>
</g>
<defs>
<clipPath id="clip0_152_348">
<rect width="42" height="42" fill="white" transform="translate(0 0.148682)"/>
</clipPath>
</defs>
</svg>
